<svg xmlns="http://www.w3.org/2000/svg" xmlns:xlink="http://www.w3.org/1999/xlink" viewBox="0,0,256,256" width="64px" height="64px" fill-rule="nonzero"><g fill="#ffffff" fill-rule="nonzero" stroke="none" stroke-width="1" stroke-linecap="butt" stroke-linejoin="miter" stroke-miterlimit="10" stroke-dasharray="" stroke-dashoffset="0" font-family="none" font-weight="none" font-size="none" text-anchor="none" style="mix-blend-mode: normal"><g transform="scale(4,4)"><path d="M37,5l-3.01172,6.02539c-0.32805,-0.01388 -0.65681,-0.02539 -0.98828,-0.02539c-12.703,0 -23,10.297 -23,23c0,4.635 1.37637,8.94564 3.73438,12.55664l2.29102,-4.05859c-1.285,-2.56 -2.02539,-5.43905 -2.02539,-8.49805c0,-10.14698 7.96115,-18.41352 17.97461,-18.94922l-20.97461,41.94922h8l7.21094,-15h11.78906v2l6,-5.5l-6,-5.5v2h-8.42383l8.42383,-17.51953v12.51953l6,5.09961v-16.57422c4.83604,3.44437 8,9.08535 8,15.47461c0,10.493 -8.507,19 -19,19c-3.094,0 -6.00494,-0.75441 -8.58594,-2.06641l-1.46289,3.75781c3.035,1.478 6.44483,2.30859 10.04883,2.30859c12.703,0 23,-10.297 23,-23c0,-8.71799 -4.85095,-16.3023 -12,-20.20312v-8.79687zM44,41.90039l-6,5.09961h6z"></path></g></g></svg>